<svg xmlns="http://www.w3.org/2000/svg" viewBox="0 0 512 512" fill="none">
  <!-- Background -->
  <rect x="16" y="16" width="480" height="480" rx="96" fill="#0c0c0f"/>

  <!-- Simple friendly blob - asymmetric like Claude's logo -->
  <path d="M176 280 C176 188 200 148 256 148 C320 148 344 196 344 264 C344 320 312 348 268 348 C264 348 258 352 256 360 C254 352 248 348 244 348 C200 348 176 324 176 280Z" fill="#fafafa"/>

  <!-- Two dots for eyes - simple, warm -->
  <circle cx="224" cy="244" r="10" fill="#0c0c0f"/>
  <circle cx="288" cy="244" r="10" fill="#0c0c0f"/>

  <!-- Eye shine -->
  <circle cx="228" cy="240" r="3" fill="#fafafa"/>
  <circle cx="292" cy="240" r="3" fill="#fafafa"/>

  <!-- Heartbeat line below -->
  <path d="M72 420 L184 420 L208 420 L224 388 L240 452 L256 380 L272 428 L288 420 L440 420"
        stroke="#22d3ee" stroke-width="5" stroke-linecap="round" stroke-linejoin="round" fill="none"/>
</svg>
