<svg xmlns="http://www.w3.org/2000/svg" viewBox="0 0 512 512" fill="none">
  <!--
    Gabe logo — abstract pulse/spark mark
    Inspired by Claude's organic starburst aesthetic.
    A radial shape where some arms are heartbeat pulses.
  -->

  <!-- Outer shape — soft rounded organic starburst -->
  <path d="
    M256 32
    C264 120 280 160 296 176
    C312 160 360 156 480 164
    C368 180 336 200 320 216
    C340 236 352 280 480 348
    C360 340 320 324 296 316
    C280 340 268 380 276 480
    C260 380 252 340 236 316
    C212 324 172 340 52 348
    C160 280 192 236 212 216
    C196 200 164 180 52 164
    C160 156 208 160 236 176
    C252 160 260 120 256 32Z
  " fill="#22d3ee"/>
</svg>
